<?xml version="1.0" encoding="UTF-8"?>
<!DOCTYPE svg PUBLIC "-//W3C//DTD SVG 1.1//EN" "http://www.w3.org/Graphics/SVG/1.1/DTD/svg11.dtd">
<!-- Creator: CorelDRAW 2020 (64 Bit) -->
<svg xmlns="http://www.w3.org/2000/svg" xml:space="preserve" width="4.2332mm" height="4.2332mm" version="1.1" style="shape-rendering:geometricPrecision; text-rendering:geometricPrecision; image-rendering:optimizeQuality; fill-rule:evenodd; clip-rule:evenodd"
viewBox="0 0 423.32 423.32"
 xmlns:xlink="http://www.w3.org/1999/xlink"
 xmlns:xodm="http://www.corel.com/coreldraw/odm/2003">
 <defs>
  <style type="text/css">
   <![CDATA[
    .fil0 {fill:none}
    .fil2 {fill:#FEFEFE}
    .fil1 {fill:#848688}
   ]]>
  </style>
 </defs>
 <g id="Camada_x0020_1">
  <metadata id="CorelCorpID_0Corel-Layer"/>
  <rect class="fil0" x="-0.02" y="-0" width="423.33" height="423.33"/>
  <g id="_2199571349856">
   <path class="fil1" d="M266.33 254.8c66.3,-42.89 110.95,-101.7 111.67,-144.57 16.84,43.87 -35.44,118.45 -117.26,167.2 0.4,-1.25 0.75,-2.51 1.06,-3.81l4.53 -18.82 0 0z"/>
   <path class="fil2" d="M88.03 357.79l155.1 0c33.61,0 61.06,-27.43 61.06,-61.03l0 -155.01c0,-3.51 -0.31,-6.96 -0.87,-10.33 29.6,-23.87 57.06,-37.18 76.89,-32.39 -88.46,-36.63 -197.82,157.58 -218.81,195.84l-77.19 -114.93 72.06 42.24c43.44,-55.72 90.43,-98.2 131,-122.51 -11.15,-11.64 -26.83,-18.94 -44.14,-18.94l-155.1 0c-33.6,0 -61.04,27.43 -61.04,61.02l0 155.01c0,33.6 27.44,61.03 61.04,61.03l0 0z"/>
  </g>
 </g>
</svg>
