<?xml version="1.0" encoding="UTF-8"?>
<!DOCTYPE svg PUBLIC "-//W3C//DTD SVG 1.1//EN" "http://www.w3.org/Graphics/SVG/1.1/DTD/svg11.dtd">
<!-- Creator: CorelDRAW 2020 (64 Bit) -->
<svg xmlns="http://www.w3.org/2000/svg" xml:space="preserve" width="12.7mm" height="12.7mm" version="1.1" style="shape-rendering:geometricPrecision; text-rendering:geometricPrecision; image-rendering:optimizeQuality; fill-rule:evenodd; clip-rule:evenodd"
viewBox="0 0 1270 1270"
 xmlns:xlink="http://www.w3.org/1999/xlink"
 xmlns:xodm="http://www.corel.com/coreldraw/odm/2003">
 <defs>
  <style type="text/css">
   <![CDATA[
    .fil1 {fill:#FEFEFE}
    .fil0 {fill:#848688}
   ]]>
  </style>
 </defs>
 <g id="Camada_x0020_1">
  <metadata id="CorelCorpID_0Corel-Layer"/>
  <g id="_2199462786976">
   <path class="fil0" d="M829.53 757.98c215.21,-139.23 360.18,-330.17 362.51,-469.32 54.66,142.42 -115.06,384.53 -380.67,542.77 1.29,-4.03 2.42,-8.15 3.44,-12.36l14.72 -61.09 0 0z"/>
   <path class="fil1" d="M250.71 1092.3l503.49 0c109.12,0 198.21,-89.04 198.21,-198.1l0 -503.21c0,-11.41 -1,-22.61 -2.8,-33.54 96.08,-77.49 185.24,-120.71 249.6,-105.16 -287.16,-118.9 -642.19,511.56 -710.32,635.77l-250.59 -373.11 233.92 137.13c141.03,-180.89 293.57,-318.8 425.26,-397.7 -36.18,-37.79 -87.09,-61.48 -143.28,-61.48l-503.49 0c-109.08,0 -198.16,89.03 -198.16,198.09l0 503.21c0,109.06 89.08,198.1 198.16,198.1l0 0z"/>
  </g>
 </g>
</svg>
